<svg width="60" height="60" viewBox="0 0 60 60" fill="none" xmlns="http://www.w3.org/2000/svg">
<path d="M41.2501 2.4375V4.875L40.0313 5.27344C39.3516 5.48438 38.4376 5.85938 37.9922 6.11719L37.1954 6.58594L35.461 4.875L33.7501 3.16406L32.0626 4.875L30.3516 6.5625L32.0626 8.27344L33.7735 10.0078L33.3047 10.8047C33.0469 11.25 32.6719 12.1641 32.461 12.8203L32.0626 14.0625H29.6251H27.1876V16.4062V18.75H29.6251H32.0626L32.461 19.9688C32.6719 20.6484 33.0469 21.5625 33.3047 22.0078L33.7735 22.8047L32.0626 24.5391L30.3516 26.25L32.0626 27.9375L33.7501 29.6484L35.461 27.9375L37.1954 26.2266L37.9922 26.6719C38.4376 26.9297 39.3516 27.3047 40.0313 27.5391L41.2501 27.9375V30.375V32.8125H43.5938H45.9376V30.375V27.9375L47.1797 27.5391C47.836 27.3047 48.7501 26.9297 49.1954 26.6719L49.9922 26.2266L51.7266 27.9375L53.4376 29.6484L55.1251 27.9375L56.836 26.25L55.1251 24.5391L53.4141 22.8047L53.8594 22.0078C54.1172 21.5625 54.4922 20.6484 54.7266 19.9688L55.1251 18.75H57.5626H60.0001V16.4062V14.0625H57.5626H55.1251L54.7266 12.8203C54.4922 12.1641 54.1172 11.25 53.8594 10.8047L53.4141 10.0078L55.1251 8.27344L56.836 6.5625L55.1251 4.875L53.4376 3.16406L51.7266 4.875L49.9922 6.58594L49.1954 6.11719C48.7501 5.85938 47.836 5.48438 47.1797 5.27344L45.9376 4.875V2.4375V0H43.5938H41.2501V2.4375ZM46.7344 10.1719C49.1954 11.3672 50.5079 13.5469 50.5079 16.4062C50.5079 18.3984 50.0157 19.7344 48.7735 21.1641C46.8516 23.3203 43.2188 24 40.5001 22.6641C36.7501 20.8125 35.461 16.1484 37.7344 12.5859C39.6094 9.63281 43.5001 8.60156 46.7344 10.1719Z" fill="#56B036"/>
<path d="M42.4453 14.3906C40.4062 15.5156 41.2734 18.75 43.5937 18.75C44.789 18.75 45.9375 17.6016 45.9375 16.4297C45.9375 14.6719 43.9922 13.5234 42.4453 14.3906Z" fill="#56B036"/>
<path d="M13.711 9.32812C12.1876 9.84375 11.1563 10.5938 10.2891 11.7891C9.14069 13.3594 8.90631 14.625 8.90631 19.0312V22.9688H11.2501H13.5938V19.2188C13.5938 13.5938 13.5938 13.5938 19.2188 13.5938H22.9688V11.25V8.90625H18.9376C15.7032 8.92969 14.6485 9 13.711 9.32812Z" fill="#56B036"/>
<path d="M14.0625 29.625V32.0625L12.8438 32.4609C12.1641 32.6719 11.25 33.0469 10.8047 33.3047L10.0078 33.7734L8.27344 32.0625L6.5625 30.3516L4.875 32.0625L3.16406 33.75L4.875 35.4609L6.58594 37.1953L6.11719 37.9922C5.85938 38.4375 5.48438 39.3516 5.27344 40.0078L4.875 41.25H2.4375H0V43.5938V45.9375H2.4375H4.875L5.27344 47.1562C5.48438 47.8359 5.85938 48.75 6.11719 49.1953L6.58594 49.9922L4.875 51.7266L3.16406 53.4375L4.875 55.125L6.5625 56.8359L8.27344 55.125L10.0078 53.4141L10.8047 53.8594C11.25 54.1172 12.1641 54.4922 12.8438 54.7266L14.0625 55.125V57.5625V60H16.4062H18.75V57.5625V55.125L19.9922 54.7266C20.6484 54.4922 21.5625 54.1172 22.0078 53.8594L22.8047 53.4141L24.5391 55.125L26.25 56.8359L27.9375 55.125L29.6484 53.4375L27.9375 51.7266L26.2266 49.9922L26.6719 49.1953C26.9297 48.75 27.3047 47.8359 27.5391 47.1562L27.9375 45.9375H30.375H32.8125V43.5938V41.25H30.375H27.9375L27.5391 40.0078C27.3047 39.3516 26.9297 38.4375 26.6719 37.9922L26.2266 37.1953L27.9375 35.4609L29.6484 33.75L27.9375 32.0625L26.25 30.3516L24.5391 32.0625L22.8047 33.7734L22.0078 33.3047C21.5625 33.0469 20.6484 32.6719 19.9922 32.4609L18.75 32.0625V29.625V27.1875H16.4062H14.0625V29.625ZM19.5469 37.3594C22.0078 38.5547 23.3203 40.7344 23.3203 43.5938C23.3203 45.5859 22.8281 46.9219 21.5859 48.3516C19.6641 50.5078 16.0312 51.1875 13.3125 49.8516C9.5625 48 8.27344 43.3359 10.5469 39.7734C12.4219 36.8203 16.3125 35.7891 19.5469 37.3594Z" fill="#56B036"/>
<path d="M15.2577 41.5781C13.2187 42.7031 14.0859 45.9375 16.4062 45.9375C17.6015 45.9375 18.7499 44.7891 18.7499 43.6172C18.7499 41.8594 16.8046 40.7109 15.2577 41.5781Z" fill="#56B036"/>
<path d="M46.4063 40.7812C46.4063 46.4062 46.4063 46.4062 40.7813 46.4062H37.0313V48.7734V51.1406L41.4376 51.0469C45.6797 50.9766 45.8672 50.9531 47.1563 50.3203C48.6563 49.5703 49.7579 48.4453 50.4844 46.8984C50.9297 45.9375 50.9766 45.3047 51.0469 41.4141L51.1407 37.0312H48.7735H46.4063V40.7812Z" fill="#56B036"/>
</svg>
