<svg width="60" height="60" viewBox="0 0 60 60" fill="none" xmlns="http://www.w3.org/2000/svg">
<path d="M7.53773 0.404307C4.45884 1.48192 2.27796 3.40623 0.91811 6.30552L0.0970723 8.02457L0.0200999 19.4165C-0.031215 29.5512 -0.00555751 30.8597 0.353647 31.4242C1.17468 32.6557 1.97007 32.784 9.46204 32.784H16.3895V45.6384V58.4928L17.1336 59.2368C17.6981 59.7756 18.1343 59.9809 18.827 59.9809C20.2382 59.9809 19.802 60.2888 28.2433 53.1047C28.6282 52.7712 29.013 53.0534 32.2202 55.7987C37.0438 59.9552 37.0951 59.9809 38.1984 59.9809C39.3016 59.9809 39.276 59.9809 44.2022 55.7987C47.2555 53.1817 47.7943 52.8225 48.1791 53.1047C48.41 53.2843 50.1547 54.7724 52.0534 56.4145C53.9521 58.0566 55.7737 59.5191 56.0816 59.673C57.1336 60.2375 58.4421 60.0579 59.2631 59.2368L60.0072 58.4671L59.9559 33.2458L59.8789 7.99891L58.9296 6.0746C57.7494 3.68846 56.056 2.02073 53.6442 0.891798L51.9251 0.0707602L30.3729 0.0194453C10.437 -0.0318696 8.71797 -0.00621214 7.53773 0.404307ZM13.6442 6.17723C14.4139 6.63907 15.081 7.30616 15.5429 8.10154L16.2613 9.30744L16.3382 18.2106L16.4152 27.1394H10.8989H5.35685V18.5954C5.35685 13.3357 5.45948 9.6923 5.63908 9.07652C5.97263 7.87062 7.81996 5.97197 9.00021 5.61277C10.4114 5.17659 12.3357 5.40751 13.6442 6.17723ZM50.8732 5.63843C52.31 6.0746 53.9264 7.74234 54.3113 9.17915C54.5678 10.0515 54.6191 15.2856 54.5678 30.7827L54.4909 51.2574L51.7968 48.9482C49.1028 46.639 48.1022 46.1259 46.9476 46.5107C46.6397 46.5877 44.5871 48.2298 42.3805 50.1284C40.174 52.0271 38.301 53.5665 38.1984 53.5665C38.0957 53.5665 36.2228 52.0271 34.0162 50.1284C31.8097 48.2298 29.7571 46.5877 29.4492 46.5107C28.2946 46.1259 27.294 46.639 24.5999 48.9739L21.9059 51.283L21.7776 29.7821L21.6493 8.28114L21.0849 6.9213C20.7513 6.17723 20.4947 5.51014 20.4947 5.45882C20.4947 5.38185 27.0887 5.33054 35.1451 5.33054C45.9982 5.33054 50.0778 5.40751 50.8732 5.63843Z" fill="#56B036"/>
<path d="M28.7821 11.1291C28.038 11.514 27.1656 12.7969 27.1656 13.5409C27.1656 14.3106 28.038 15.5935 28.8334 15.9527C30.0906 16.5685 46.3061 16.5685 47.5633 15.9527C48.3587 15.5935 49.2311 14.3106 49.2311 13.5409C49.2311 12.7712 48.3587 11.4883 47.5633 11.1291C46.3061 10.5133 30.0136 10.539 28.7821 11.1291Z" fill="#56B036"/>
<path d="M28.5512 22.2388C27.4222 22.9316 27.0117 24.2144 27.4992 25.4203C28.2433 27.165 28.0637 27.1394 38.224 27.1394C46.9989 27.1394 47.3837 27.1137 48.0252 26.6262C49.0002 25.8565 49.3594 24.5736 48.8719 23.4704C48.1791 21.777 47.9739 21.7513 38.1471 21.7513C29.911 21.7513 29.2952 21.777 28.5512 22.2388Z" fill="#56B036"/>
<path d="M28.3715 33.2972C27.3966 34.0669 27.0373 35.3498 27.5248 36.4531C28.2176 38.1465 28.4229 38.1721 38.1983 38.1721C47.9738 38.1721 48.1791 38.1465 48.8718 36.4531C49.3593 35.3498 49.0001 34.0669 48.0251 33.2972C47.3837 32.8097 46.9988 32.7841 38.1983 32.7841C29.3978 32.7841 29.013 32.8097 28.3715 33.2972Z" fill="#56B036"/>
</svg>
