<svg width="60" height="60" viewBox="0 0 60 60" fill="none" xmlns="http://www.w3.org/2000/svg">
<path d="M45.9845 0.28125C45.4689 0.585938 44.6486 1.71094 37.3361 12.0234C33.9142 16.875 33.7032 17.3906 34.7814 18.6562C35.3204 19.2656 35.4845 19.3125 37.6642 19.4297L39.9611 19.5469L40.0782 39C40.1486 49.7109 40.2892 58.6406 40.4064 58.875C40.8751 59.8594 41.672 59.9766 47.2501 59.9766H52.547L53.3439 59.1797L54.1407 58.3828V38.9062V19.4297H56.3439C58.3126 19.4297 58.6407 19.3594 59.1798 18.8906C59.5782 18.5625 59.8361 18.0469 59.9064 17.4375C60.0236 16.5234 59.8829 16.2891 54.3751 8.53125C51.2814 4.14844 48.4923 0.445312 48.2111 0.28125C47.5548 -0.09375 46.6642 -0.09375 45.9845 0.28125ZM50.1329 10.6406L52.9689 14.625L51.7501 14.8828C50.9532 15.0703 50.3439 15.375 49.9923 15.7969L49.4532 16.4062V35.8594V55.2891H47.1095H44.7657L44.7189 35.7188L44.6486 16.1719L44.1564 15.6562C43.8751 15.375 43.1017 15.0234 42.4454 14.8828L41.2267 14.6016L44.1095 10.5703C45.6798 8.34375 47.0626 6.5625 47.1329 6.58594C47.2267 6.63281 48.5626 8.4375 50.1329 10.6406Z" fill="#56B036"/>
<path d="M20.5781 28.3125L19.8047 28.9922V43.8047V58.6172L20.5781 59.2969L21.3516 60L27 59.9297L32.625 59.8594L33.1875 59.2031L33.75 58.5469V43.8047V29.0625L33.1875 28.4062L32.625 27.75L27 27.6797L21.3516 27.6094L20.5781 28.3125ZM29.0625 43.8047V55.2891H26.7188H24.375V43.8047V32.3203H26.7188H29.0625V43.8047Z" fill="#56B036"/>
<path d="M1.19531 41.789C0.046875 42.4218 0.0234375 42.7031 0 50.6718C0 58.7578 0.046875 59.1328 1.28906 59.6953C2.22656 60.1171 12 60.0937 12.8672 59.6484C14.0156 59.039 14.0625 58.6406 14.0625 50.7187C14.0625 42.7968 14.0156 42.3984 12.8672 41.789C11.9531 41.3203 2.03906 41.3203 1.19531 41.789ZM9.375 50.7187V55.289H7.03125H4.6875V50.7187V46.1484H7.03125H9.375V50.7187Z" fill="#56B036"/>
</svg>
