<svg width="61" height="60" viewBox="0 0 61 60" fill="none" xmlns="http://www.w3.org/2000/svg">
<path d="M4.34369 0.257852C3.64183 0.454372 2.74346 1.07201 1.90123 1.88616C0.86248 2.92491 0.525589 3.51447 0.244846 4.72166C0.0202516 5.81656 -0.0358969 11.3753 0.0202516 24.9351L0.104474 43.6326L0.946703 44.9802C1.56434 45.9909 2.21005 46.5804 3.30494 47.1419L4.79288 47.928H23.743C37.9486 47.928 43.002 47.8438 43.8723 47.5911C45.3602 47.1419 47.185 45.3171 47.6342 43.8291C47.8869 42.9588 47.9711 37.9055 47.9711 23.6999V4.74974L47.185 3.2618C46.6236 2.1669 46.034 1.52119 45.0233 0.90356L43.6758 0.0613321L24.5572 0.00518353C11.8395 -0.0228907 5.07362 0.0613321 4.34369 0.257852ZM42.0194 23.9806L41.9351 41.892L24.0518 41.9762L6.14044 42.0324V24.0648V6.0973H24.108H42.0755L42.0194 23.9806Z" fill="#56B036"/>
<path d="M22.4516 12.3861C21.2725 13.0318 21.0479 13.846 21.0198 17.5237V20.9768H17.6509C13.9732 20.9768 13.0467 21.2295 12.4291 22.4086C11.6992 23.8404 12.2045 25.9179 13.4117 26.5917C13.7205 26.7321 15.5453 26.8724 17.4825 26.8724H21.0198V30.2413C21.0198 34.8736 21.5532 35.8562 24.0799 35.8562C24.866 35.8562 25.4275 35.6597 25.989 35.1824C26.7751 34.5086 26.7751 34.4244 26.9154 30.7467L27.0558 27.0128L30.7897 26.8724C34.4674 26.7321 34.5516 26.7321 35.2254 25.946C35.7027 25.3845 35.8992 24.823 35.8992 24.0369C35.8992 21.5102 34.9166 20.9768 30.2843 20.9768H26.9154V17.4395C26.9154 15.5023 26.7751 13.6775 26.6347 13.3687C25.989 12.1615 23.7992 11.6562 22.4516 12.3861Z" fill="#56B036"/>
<path d="M55.3546 6.43428C53.8386 7.16421 53.8667 6.68695 53.8667 31.1958V53.7956L33.7936 53.8798L13.7205 53.964L12.9905 54.694C12.1483 55.5643 11.8395 57.2768 12.3729 58.3155C12.5694 58.7086 13.1871 59.242 13.7205 59.4947C14.6189 59.9719 16.2191 60 34.4393 60C48.6168 60 54.5405 59.9158 55.495 59.6631C57.2918 59.2139 59.257 57.2487 59.7061 55.452C59.9588 54.4974 60.043 47.8719 60.043 31.3642C60.043 6.5185 60.0711 7.16421 58.4709 6.4062C57.6006 6.01316 56.1969 6.04124 55.3546 6.43428Z" fill="#56B036"/>
</svg>
