<svg width="60" height="60" viewBox="0 0 60 60" fill="none" xmlns="http://www.w3.org/2000/svg">
<path d="M26.8075 0.140571C22.383 0.772643 19.4801 1.66223 16.1793 3.34775C8.10285 7.46792 2.41421 15.006 0.447761 24.1593C-0.160901 26.9217 -0.137491 32.8444 0.447761 35.7005C1.61826 41.3423 4.52111 46.9373 8.07944 50.4488C8.85197 51.2213 9.48405 51.9002 9.48405 51.9939C9.48405 52.0875 8.38377 52.228 7.0494 52.3216C5.71503 52.4153 4.52111 52.5557 4.40406 52.6494C4.16996 52.7898 4.45088 56.8398 4.70839 57.0973C4.84885 57.2377 18.0755 56.1375 18.3565 55.9736C18.5203 55.8565 17.5137 42.3957 17.303 42.1616C17.2562 42.1148 16.2027 42.1616 14.962 42.2553L12.6912 42.4192L12.8551 44.4558C12.9487 45.5561 13.0892 47.0543 13.1594 47.7566L13.2765 49.0442L12.0826 47.8737C8.82856 44.7367 6.41733 40.4293 5.22341 35.6536C4.80203 33.9447 4.70839 32.9615 4.70839 29.8479C4.7318 26.5939 4.80203 25.798 5.31705 23.855C6.15982 20.7414 7.16645 18.5175 8.89879 15.919C13.136 9.55142 20.2995 5.33761 27.9078 4.75235L29.8508 4.61189V2.31771V0.000110408L28.6335 0.0235205C27.9546 0.0469305 27.1352 0.0937507 26.8075 0.140571Z" fill="#56B036"/>
<path d="M46.8934 3.37104C43.8501 3.65196 41.2984 3.93289 41.2515 3.97971C41.1813 4.04994 41.392 6.88255 41.6963 10.3004C42.0007 13.7183 42.2582 16.785 42.2582 17.1362C42.2582 17.7448 42.3284 17.7916 43.1712 17.7916C43.6628 17.7916 44.7162 17.7214 45.5356 17.6278L46.987 17.4873L46.8465 15.474C46.7529 14.3738 46.6124 12.8755 46.5422 12.1732L46.4252 10.8857L47.6191 12.0562C50.8731 15.1931 53.2843 19.5006 54.4782 24.2762C54.8996 25.9852 54.9932 26.9684 54.9932 30.0819C54.9698 33.3359 54.8996 34.1319 54.3846 36.0749C53.1204 40.7569 51.0135 44.4323 47.6659 47.7799C43.3584 52.0874 37.8571 54.6625 31.8641 55.1541L29.8508 55.318V57.659V60L32.0046 59.8361C39.2851 59.2743 45.8633 56.2544 51.0135 51.0808C55.2742 46.7967 57.9663 41.787 59.2539 35.7706C59.8625 33.0082 59.8391 27.0854 59.2539 24.2294C58.0834 18.5876 55.438 13.4608 51.7861 9.66835C50.8731 8.73195 50.1942 7.9126 50.241 7.86578C50.2878 7.81896 51.5051 7.6785 52.9097 7.58486L55.4849 7.37417L55.438 6.67186C55.4146 6.27389 55.321 5.26726 55.2508 4.37768L55.0869 2.8092L53.7759 2.83261C53.0502 2.85602 49.9367 3.09012 46.8934 3.37104Z" fill="#56B036"/>
<path d="M27.5098 13.5544V15.8485L26.3627 16.0124C24.7942 16.2231 22.5703 17.3702 21.5402 18.5407C20.042 20.1794 19.4333 21.7947 19.4333 24.1123C19.4333 25.8915 19.527 26.2894 20.2058 27.6706C21.0954 29.4732 22.3596 30.7139 24.209 31.5801C25.4029 32.142 25.8477 32.1888 29.3826 32.3058C33.8071 32.4463 34.4626 32.657 35.2351 34.1786C35.8438 35.3725 35.8204 36.3558 35.1883 37.5029C34.3221 39.0245 33.4559 39.3288 29.8508 39.3288C27.2523 39.3288 26.6436 39.2586 25.8711 38.8606C24.9581 38.3924 23.9983 37.0112 23.9983 36.1685C23.9983 35.8876 23.6003 35.8173 21.6339 35.8173H19.246L19.4099 36.9176C19.5972 38.3924 20.4868 40.2418 21.5402 41.3889C22.5703 42.5594 24.7942 43.7065 26.3627 43.9172L27.5098 44.0811V46.3753V48.6929H29.8508H32.1918V46.3753V44.0811L33.3389 43.9172C34.9074 43.7065 37.1313 42.5594 38.1614 41.3889C39.6596 39.7502 40.2683 38.1349 40.2683 35.8173C40.2683 34.0382 40.1746 33.6402 39.4957 32.259C38.6062 30.4564 37.342 29.2157 35.4926 28.3495C34.2987 27.7877 33.8539 27.7409 30.319 27.6238C25.9413 27.4833 25.239 27.2727 24.4431 25.7042C23.8812 24.5805 23.8812 23.6207 24.4665 22.4736C25.2624 20.9285 26.2222 20.6008 29.8508 20.6008C32.4493 20.6008 33.058 20.671 33.8305 21.069C34.7435 21.5372 35.7033 22.9184 35.7033 23.7611C35.7033 24.0421 36.1013 24.1123 38.0677 24.1123H40.4556L40.2917 23.012C40.1044 21.5372 39.2148 19.6878 38.1614 18.5407C37.1313 17.3702 34.9074 16.2231 33.3389 16.0124L32.1918 15.8485V13.5544V11.2368H29.8508H27.5098V13.5544Z" fill="#56B036"/>
</svg>
