<svg width="162" height="16" viewBox="0 0 162 16" fill="none" xmlns="http://www.w3.org/2000/svg">
<path fill-rule="evenodd" clip-rule="evenodd" d="M114.373 1.35638C112.299 1.35638 110.513 1.62916 109.015 2.18217C107.053 2.90333 105.977 3.97946 105.585 4.4428C105.08 5.04813 104.83 5.64598 104.83 5.64598C104.706 5.93743 104.621 6.25877 104.621 6.25877C104.583 6.38956 104.561 6.49418 104.516 6.70717C104.464 6.94631 104.437 7.06588 104.423 7.21161C104.423 7.21161 104.404 7.40218 104.404 7.63385C104.404 8.79219 104.789 9.84963 105.555 10.8025C106.321 11.7553 107.415 12.5138 108.843 13.0706C110.27 13.6273 111.929 13.9076 113.824 13.9076C115.341 13.9076 116.761 13.7581 118.087 13.4629C119.414 13.1677 120.437 12.8426 121.159 12.4877V14.0159C120.456 14.3261 119.436 14.6138 118.102 14.8753C116.768 15.1369 115.345 15.2677 113.827 15.2677C111.5 15.2677 109.474 14.9351 107.752 14.27C106.029 13.6049 104.71 12.6932 103.798 11.5348C102.887 10.3765 102.431 9.07617 102.431 7.63385C102.431 6.17658 102.902 4.87251 103.84 3.72164C104.781 2.57078 106.145 1.66278 107.942 0.997672C109.736 0.332561 111.881 0 114.369 0C115.942 0 117.415 0.160682 118.797 0.485762C120.176 0.810843 121.237 1.17702 121.977 1.58805V3.17609C121.293 2.71276 120.262 2.29053 118.879 1.91687C117.501 1.54321 115.998 1.35638 114.373 1.35638ZM0 0.212965H17.7002V1.63287H9.79732V15.0509H7.90287V1.63287H0V0.212965ZM124.585 15.1182V0.280244H126.48V13.5937H126.614L139.225 0.280244H142.039V15.1182H140.144V1.80478H140.01L127.399 15.1182H124.585ZM44.3196 7.57774L36.0094 15.1667H38.3411L45.4032 8.65762H45.5377L52.6036 15.1667H54.9315L46.6213 7.57774V7.51423L54.5242 0.328775H52.1963L45.5377 6.43435H45.4032L38.7446 0.328775H36.4167L44.3196 7.51423V7.57774ZM81.9881 14.9762C83.6546 15.66 85.6425 16 87.9517 16C90.2609 16 92.2487 15.66 93.9152 14.9762C95.5817 14.2961 96.8485 13.362 97.7191 12.1812C98.5897 10.9967 99.0269 9.65902 99.0269 8.16439C99.0269 6.66976 98.5897 5.33206 97.7191 4.14756C96.8485 2.9668 95.5817 2.0364 93.9152 1.35261C92.2525 0.668811 90.2609 0.328775 87.9517 0.328775C85.6425 0.328775 83.6546 0.668811 81.9881 1.35261C80.3216 2.03267 79.0548 2.9668 78.1842 4.14756C77.3136 5.33206 76.8764 6.66976 76.8764 8.16439C76.8764 9.65902 77.3136 11.0005 78.1842 12.1812C79.0548 13.362 80.3216 14.2924 81.9881 14.9762ZM92.925 13.7581C91.535 14.3223 89.876 14.6063 87.9517 14.6063C86.0273 14.6063 84.3683 14.3223 82.9783 13.7581C81.5883 13.1938 80.5308 12.4204 79.8022 11.4414C79.0773 10.4624 78.7111 9.3713 78.7111 8.16439C78.7111 6.96121 79.0735 5.87013 79.8022 4.89115C80.5308 3.90843 81.5883 3.13495 82.9783 2.57072C84.3683 2.0065 86.0273 1.72252 87.9517 1.72252C89.876 1.72252 91.535 2.00276 92.925 2.57072C94.3151 3.13869 95.3725 3.91217 96.1011 4.89115C96.8298 5.87013 97.1922 6.96121 97.1922 8.16439C97.1922 9.3713 96.8298 10.4624 96.1011 11.4414C95.3762 12.4204 94.3151 13.1938 92.925 13.7581ZM148.327 1.70015H145.97H144.075V0.280244H159.369V1.70015H148.327ZM159.19 7.45823C157.953 6.64739 156.155 6.2401 153.79 6.2401H148.324H145.97H144.075V7.65999H145.671H149.74H153.708C155.494 7.65999 156.832 7.93277 157.725 8.47458C158.618 9.02012 159.066 9.74875 159.066 10.6679C159.066 11.5871 158.618 12.3233 157.725 12.8725C156.832 13.4255 155.494 13.6983 153.708 13.6983H149.74H144.071V15.1182H153.708C155.315 15.1182 156.667 14.9314 157.766 14.5577C158.864 14.1841 159.687 13.6609 160.228 12.9884C160.77 12.3158 161.039 11.5423 161.039 10.6679C161.047 9.34146 160.426 8.26906 159.19 7.45823ZM57.9544 6.92011V0.328775H56.0599V15.1667H57.9544V8.34375V6.92011ZM59.8488 6.92011H70.0871V8.34375H64.9679H59.8488V6.92011ZM73.8722 8.34375V0.328775H71.9815V8.34375V15.1667H73.8722V8.34375Z" fill="white"/>
<path fill-rule="evenodd" clip-rule="evenodd" d="M29.022 8.22424H31.7235V6.80434H26.7613H19.4115H19.3442V8.22424H19.4115H29.022ZM19.3442 1.63291V0.213005H34.3391V1.63291H26.7613H21.2387H19.3442ZM29.022 13.6311H21.2387H19.3442V15.051H34.8772V13.6311H29.022Z" fill="#FF8C21"/>
</svg>
